<?xml version="1.0" standalone="no"?>
<!DOCTYPE svg PUBLIC "-//W3C//DTD SVG 20010904//EN"
 "http://www.w3.org/TR/2001/REC-SVG-20010904/DTD/svg10.dtd">
<svg version="1.0" xmlns="http://www.w3.org/2000/svg"
 width="700.000000pt" height="700.000000pt" viewBox="0 0 700.000000 700.000000"
 preserveAspectRatio="xMidYMid meet">
<metadata>
Created by potrace 1.11, written by Peter Selinger 2001-2013
</metadata>
<g transform="translate(0.000000,700.000000) scale(0.100000,-0.100000)"
fill="#000000" stroke="none">
<path d="M860 6658 c1 -189 0 -382 0 -430 l0 -88 -430 0 -430 0 0 -108 0 -109
425 0 c234 0 428 -2 430 -5 3 -3 6 -197 5 -432 l0 -426 108 0 109 0 -1 426
c-1 251 3 428 8 432 5 3 200 5 433 5 l423 0 0 109 0 108 -427 0 c-234 0 -428
2 -431 5 -3 3 -5 196 -5 430 l0 425 -108 0 -109 0 0 -342z"/>
<path d="M5924 6579 c1 -231 -1 -425 -5 -430 -3 -5 -195 -10 -430 -11 l-424
-3 -3 -106 -3 -106 422 1 c288 1 426 -2 433 -10 8 -7 11 -145 10 -432 l0 -422
108 0 108 0 2 432 3 432 428 -1 427 0 0 108 0 109 -277 0 c-153 0 -347 0 -430
0 l-153 0 0 430 0 430 -108 0 -109 0 1 -421z"/>
<path d="M2824 5635 c-201 -61 -318 -259 -268 -453 31 -119 101 -203 212 -255
122 -57 276 -45 390 30 107 71 163 172 167 301 5 147 -59 259 -196 344 -69 43
-218 59 -305 33z"/>
<path d="M5255 4609 c-174 -33 -302 -97 -418 -208 -69 -66 -145 -170 -182
-248 -11 -24 -25 -44 -30 -47 -7 -2 -10 72 -10 228 1 127 -1 237 -3 244 -3 9
-84 12 -357 12 l-353 0 0 -1350 c0 -1010 3 -1350 11 -1351 7 -1 171 -2 366 -3
231 -1 355 2 357 9 2 5 5 384 7 840 3 823 3 831 25 902 46 151 129 256 253
323 80 42 163 58 284 55 190 -6 320 -76 398 -215 34 -61 45 -99 65 -220 4 -25
8 -415 7 -867 0 -453 2 -824 5 -824 3 -1 168 -2 367 -3 316 -1 362 1 365 14 4
18 2 1676 -2 1798 -2 46 -6 102 -11 125 -4 23 -10 62 -14 86 -10 69 -63 220
-102 291 -124 227 -325 364 -608 414 -106 19 -307 17 -420 -5z"/>
<path d="M2569 4558 c0 -42 0 -2661 0 -2668 2 -10 731 -5 732 5 1 5 2 614 3
1352 l1 1343 -367 0 -368 0 -1 -32z"/>
<path d="M860 1512 c0 -401 -1 -430 -17 -433 -10 -2 -204 -4 -431 -3 l-412 0
0 -108 0 -108 430 2 430 3 0 -235 c1 -129 0 -324 0 -432 l-1 -198 109 0 109 0
1 402 c0 222 1 415 1 430 l1 28 428 2 427 3 0 105 0 105 -422 1 c-233 0 -426
4 -430 7 -3 4 -7 197 -7 429 l-1 423 -107 3 -108 3 0 -429z"/>
<path d="M5924 1383 c1 -191 -3 -290 -10 -297 -7 -8 -145 -11 -432 -10 l-422
0 0 -108 0 -108 429 0 c400 0 429 -1 432 -17 2 -10 4 -204 3 -430 l0 -413 108
0 108 0 0 430 0 430 430 0 431 0 -3 108 -3 107 -420 2 c-231 0 -423 2 -427 2
-5 1 -8 134 -8 296 l0 295 -108 0 -109 0 1 -287z"/>
</g>
</svg>
